<svg xmlns="http://www.w3.org/2000/svg" viewBox="0 0 48 48" width="48" height="48">
  <path fill="#FF9900" d="M35.6 34.2c-5.2 3.8-12.7 5.9-19.3 5.9-9.1 0-17.3-3.4-23.5-9.1-.5-.5-.1-1.1.5-.8 6.7 3.8 14.9 6.1 23.3 6.1 5.9 0 12.3-1.6 18.2-4.9.9-.5 1.6.4.8 1.1z"/>
  <path fill="#FF9900" d="M37.8 31.9c-.7-.9-4.4-.4-6.1-.2-.5.1-.6-.4-.2-.7 2.6-1.9 6.8-1.3 7.4-.6.6.7-.2 4.9-2.6 6.9-.4.3-.8.2-.5-.3.9-1.5 2.7-4.2 2-5.1z"/>
  <path fill="#232F3E" d="M25.7 13.9c-1.3-1.2-3.1-1.8-5.3-1.8-4.5 0-7.3 2.5-7.3 6.4 0 4.1 2.9 6.2 6.8 6.2 2.1 0 3.8-.6 5-1.7v1.4h4v-12h-4v1.5zm-.1 6.8c-.7.8-1.8 1.3-3.1 1.3-2 0-3.3-1.2-3.3-3.2s1.3-3.2 3.4-3.2c1.2 0 2.3.5 3 1.3v3.8z"/>
</svg>